<svg width="16" height="15" viewBox="0 0 16 15" fill="none" xmlns="http://www.w3.org/2000/svg">
<path d="M8 7.0693V6.92657C8 6.46441 8.294 6.21973 8.588 6.02263C8.875 5.83233 9.162 5.58765 9.162 5.13908C9.162 4.5138 8.644 4.01086 8 4.01086C7.356 4.01086 6.838 4.5138 6.838 5.13908M7.9965 8.69367H8.0035M11.5 11.8744H8.7L5.585 13.8862C5.47987 13.9543 5.3577 13.9933 5.2315 13.9992C5.10531 14.0051 4.97983 13.9777 4.86845 13.9197C4.75707 13.8618 4.66397 13.7757 4.59908 13.6704C4.53419 13.5652 4.49995 13.4448 4.5 13.3221V11.8744C2.4 11.8744 1 10.5151 1 8.47618V4.39826C1 2.35931 2.4 1 4.5 1H11.5C13.6 1 15 2.35931 15 4.39826V8.47618C15 10.5151 13.6 11.8744 11.5 11.8744Z" stroke="#00274D" stroke-opacity="0.4" stroke-width="1.5" stroke-linecap="round" stroke-linejoin="round"/>
</svg>
